<svg width="8732" height="2398" viewBox="0 0 8732 2398" fill="none" xmlns="http://www.w3.org/2000/svg">
<path d="M3272.72 1797H3145.77V1162.23H2955.34V1797H2828.38V1162.23H2637.95V1797H2511V1035.28H3272.72V1797ZM4161.39 1797H4034.44V1479.62H3526.62V1797H3399.67V1035.28H4161.39V1797ZM4034.44 1352.66V1162.23H3526.62V1352.66H4034.44ZM4415.3 1195.24V1797H4288.34V1035.28H4447.04L4923.11 1637.04V1035.28H5050.06V1797H4891.37L4415.3 1195.24ZM5938.73 1797H5811.78V1479.62H5303.97V1797H5177.02V1035.28H5938.73V1797ZM5811.78 1352.66V1162.23H5303.97V1352.66H5811.78ZM6827.41 1035.28V1162.23H6192.64V1670.05H6700.45V1479.62H6319.59V1352.66H6827.41V1797H6065.69V1035.28H6827.41ZM7716.08 1797H6954.36V1035.28H7716.08V1162.23H7081.31V1352.66H7716.08V1479.62H7081.31V1670.05H7716.08V1797ZM8573.01 1797H8414.32L8150.26 1479.62H8096.94V1352.66H8477.8V1162.23H7969.98V1797H7843.03V1035.28H8604.75V1479.62H8322.91L8573.01 1797Z" fill="black"/>
<path d="M1441.8 449.463C1442.78 449.112 1443.2 449.648 1443.39 450.938C1443.44 451.469 1442.52 451.508 1442.05 451.537C1441.57 451.086 1441.55 450.607 1441.8 449.463Z" fill="#B87D7B"/>
<path d="M1714.11 1752.33C1713.38 1754.17 1712.5 1755.34 1711.18 1756.87C1710.97 1754.79 1711.19 1752.35 1711.4 1749.91C1712.25 1750.49 1713.1 1751.08 1714.11 1752.33Z" fill="#878C90"/>
<path d="M1442.74 832.034C1443.33 832.476 1443.19 833.158 1442.25 834.017C1441.63 833.527 1441.82 832.889 1442.74 832.034Z" fill="#B87D7B"/>
<path d="M1710.99 2165.61C1711.47 2165.42 1711.86 2165.8 1712.36 2166.61C1711.8 2167.08 1711.27 2166.79 1710.99 2165.61Z" fill="#878C90"/>
<path d="M1440.15 428.49L235.595 1058.69L632.177 1201.14L1440.15 806.838L1644.14 901.425L2001.98 745.299L1440.15 428.49Z" fill="#809EAB"/>
<path d="M2001.98 745.299L1644.14 901.425L2001.98 1079.2V745.299Z" fill="#923441"/>
<path d="M2168.36 1560.11L1839.01 1418.8L1930.18 1621.65L2168.36 1560.11Z" fill="#809EAB"/>
<path d="M1132.46 1364.1V1732.19L601.407 1884.9L0.837646 1777.78L1132.46 1364.1Z" fill="#809EAB"/>
<path d="M1698.84 1724.22V2145.87L1954.11 2197.15L1698.84 1724.22Z" fill="#809EAB"/>
<path fill-rule="evenodd" clip-rule="evenodd" d="M2148.99 496.866L1440.15 0V428.49L2001.98 745.299V1079.2L1644.14 901.424L1440.15 806.838V2090.03L1698.84 2145.87V1724.22L1954.11 2197.15L2218.5 2252.99L1930.18 1621.65L1839.01 1418.8L2168.36 1560.11L2148.99 496.866ZM236.735 1390.31L235.595 1058.69L632.177 1201.14L236.735 1390.31Z" fill="#911924"/>
<path d="M979.755 2397.72L2218.5 2252.99L1954.11 2197.15L1698.84 2145.87L1440.15 2090.03L0.837646 2344.16L979.755 2397.72Z" fill="#923441"/>
<rect x="2511" y="1897" width="6094" height="20" fill="#911924"/>
<path d="M2703.9 2119.1V2173.1C2698.1 2181.1 2691.4 2188 2683.8 2193.8C2680.2 2196.6 2675.6 2199.5 2670 2202.5C2655 2210.3 2639.4 2214.2 2623.2 2214.2C2605 2214.2 2587.9 2209.5 2571.9 2200.1C2555.9 2190.7 2543.5 2177.7 2534.7 2161.1C2530.3 2152.3 2527.3 2144.1 2525.7 2136.5C2523.9 2128.9 2523 2121.3 2523 2113.7C2523 2098.5 2526.3 2084.3 2532.9 2071.1C2537.3 2061.9 2543 2053.5 2550 2045.9C2557.2 2038.3 2565.3 2031.9 2574.3 2026.7C2589.3 2018.3 2605.7 2014.1 2623.5 2014.1C2628.1 2014.1 2632.7 2014.4 2637.3 2015C2649.1 2016.6 2660.3 2020.4 2670.9 2026.4C2681.7 2032.2 2691.1 2039.8 2699.1 2049.2L2683.5 2062.4C2674.5 2052 2664 2044.6 2652 2040.2C2642.8 2036.6 2633.1 2034.8 2622.9 2034.8C2609.3 2034.8 2596.9 2037.8 2585.7 2043.8C2578.5 2047.8 2572 2052.8 2566.2 2058.8C2560.4 2064.8 2555.7 2071.5 2552.1 2078.9C2546.5 2089.9 2543.7 2101.7 2543.7 2114.3C2543.7 2121.1 2544.6 2128 2546.4 2135C2551 2151.8 2560.4 2165.8 2574.6 2177C2581.6 2182.2 2589.2 2186.3 2597.4 2189.3C2605.8 2192.1 2614.3 2193.5 2622.9 2193.5C2634.5 2193.5 2645.6 2191.1 2656.2 2186.3C2666.8 2181.3 2675.9 2174.4 2683.5 2165.6L2683.8 2139.5H2654.7V2119.1H2703.9ZM2844.41 2033.9V2103.8H2904.11V2123H2844.41V2192.6H2933.21V2213H2824.01V2013.5H2933.21V2033.9H2844.41ZM3198.67 2013.5V2213H3174.37L3073.87 2051.9V2213H3053.17V2013.5H3074.77L3178.27 2179.1V2013.5H3198.67ZM3339.06 2013.5V2213H3318.66V2013.5H3339.06ZM3479.45 2033.9V2103.8H3539.15V2123H3479.45V2192.6H3568.25V2213H3459.05V2013.5H3568.25V2033.9H3479.45ZM4011.07 2214.8C3992.67 2214.8 3975.77 2210.3 3960.37 2201.3C3944.97 2192.3 3932.77 2180.1 3923.77 2164.7C3914.77 2149.3 3910.27 2132.4 3910.27 2114C3910.27 2095.6 3914.77 2078.7 3923.77 2063.3C3932.77 2047.7 3944.97 2035.4 3960.37 2026.4C3975.97 2017.2 3992.87 2012.6 4011.07 2012.6C4025.87 2012.6 4039.97 2015.7 4053.37 2021.9C4066.77 2027.9 4078.17 2036.6 4087.57 2048L4071.97 2061.2C4064.37 2052.4 4055.17 2045.6 4044.37 2040.8C4033.77 2035.8 4022.67 2033.3 4011.07 2033.3C3996.67 2033.3 3983.27 2037 3970.87 2044.4C3958.67 2051.6 3948.97 2061.4 3941.77 2073.8C3934.57 2086.2 3930.97 2099.6 3930.97 2114C3930.97 2128.4 3934.57 2141.8 3941.77 2154.2C3948.97 2166.4 3958.67 2176.1 3970.87 2183.3C3983.27 2190.5 3996.67 2194.1 4011.07 2194.1C4022.67 2194.1 4033.77 2191.7 4044.37 2186.9C4055.17 2181.9 4064.37 2175 4071.97 2166.2L4087.57 2179.4C4078.17 2190.6 4066.77 2199.3 4053.37 2205.5C4039.97 2211.7 4025.87 2214.8 4011.07 2214.8ZM4224.94 2013.5V2213H4204.54V2013.5H4224.94ZM4411.53 2212.7L4341.93 2013.2H4363.83L4424.73 2187.5L4485.63 2013.2H4507.23L4437.63 2212.7H4411.53ZM4644.58 2013.5V2213H4624.18V2013.5H4644.58ZM4850.37 2192.6V2213H4764.57V2013.5H4785.27V2192.6H4850.37ZM5324.43 2213H5299.23L5292.63 2203.4H5292.33L5291.73 2203.7L5291.13 2204.3C5280.73 2210.9 5269.43 2214.2 5257.23 2214.2C5246.23 2214.2 5235.73 2211.6 5225.73 2206.4C5215.73 2201 5207.53 2193.5 5201.13 2183.9C5193.33 2172.5 5189.43 2159.8 5189.43 2145.8C5189.43 2142 5189.73 2138.2 5190.33 2134.4C5191.73 2126.2 5194.53 2118.6 5198.73 2111.6C5202.93 2104.6 5208.43 2098.7 5215.23 2093.9L5209.23 2085.5C5205.83 2080.7 5203.53 2076.4 5202.33 2072.6C5201.33 2068.8 5200.83 2065.9 5200.83 2063.9C5200.83 2054.7 5203.13 2046.3 5207.73 2038.7C5212.33 2030.9 5218.43 2024.7 5226.03 2020.1C5233.83 2015.5 5242.23 2013.2 5251.23 2013.2C5260.43 2013.2 5268.83 2015.5 5276.43 2020.1C5284.23 2024.7 5290.43 2030.9 5295.03 2038.7C5299.63 2046.3 5301.93 2054.7 5301.93 2063.9H5281.53C5281.53 2055.5 5278.53 2048.4 5272.53 2042.6C5266.73 2036.6 5259.63 2033.6 5251.23 2033.6C5243.03 2033.6 5235.93 2036.6 5229.93 2042.6C5224.13 2048.4 5221.23 2055.4 5221.23 2063.6C5221.23 2064.2 5221.53 2065.5 5222.13 2067.5C5222.93 2069.3 5224.23 2071.4 5226.03 2073.8L5295.33 2172.2C5299.93 2165 5302.03 2157.1 5301.63 2148.5V2141.3H5322.03V2147.9C5322.23 2155.5 5321.13 2162.9 5318.73 2170.1C5316.33 2177.3 5312.73 2183.9 5307.93 2189.9L5324.43 2213ZM5280.63 2186.6L5226.93 2110.4C5221.33 2114.4 5217.03 2119.5 5214.03 2125.7C5211.23 2131.7 5209.83 2138.4 5209.83 2145.8C5209.83 2155.6 5212.63 2164.5 5218.23 2172.5C5222.63 2179.3 5228.23 2184.6 5235.03 2188.4C5242.03 2192 5249.33 2193.8 5256.93 2193.8C5265.73 2193.8 5273.43 2191.5 5280.03 2186.9L5280.63 2186.6ZM5764.37 2214.8C5745.97 2214.8 5729.07 2210.3 5713.67 2201.3C5698.27 2192.3 5686.07 2180.1 5677.07 2164.7C5668.07 2149.3 5663.57 2132.4 5663.57 2114C5663.57 2095.6 5668.07 2078.7 5677.07 2063.3C5686.07 2047.7 5698.27 2035.4 5713.67 2026.4C5729.27 2017.2 5746.17 2012.6 5764.37 2012.6C5779.17 2012.6 5793.27 2015.7 5806.67 2021.9C5820.07 2027.9 5831.47 2036.6 5840.87 2048L5825.27 2061.2C5817.67 2052.4 5808.47 2045.6 5797.67 2040.8C5787.07 2035.8 5775.97 2033.3 5764.37 2033.3C5749.97 2033.3 5736.57 2037 5724.17 2044.4C5711.97 2051.6 5702.27 2061.4 5695.07 2073.8C5687.87 2086.2 5684.27 2099.6 5684.27 2114C5684.27 2128.4 5687.87 2141.8 5695.07 2154.2C5702.27 2166.4 5711.97 2176.1 5724.17 2183.3C5736.57 2190.5 5749.97 2194.1 5764.37 2194.1C5775.97 2194.1 5787.07 2191.7 5797.67 2186.9C5808.47 2181.9 5817.67 2175 5825.27 2166.2L5840.87 2179.4C5831.47 2190.6 5820.07 2199.3 5806.67 2205.5C5793.27 2211.7 5779.17 2214.8 5764.37 2214.8ZM6048.88 2214.5C6030.68 2214.5 6013.98 2210 5998.78 2201C5983.58 2192 5971.48 2179.9 5962.48 2164.7C5953.48 2149.5 5948.98 2132.8 5948.98 2114.6C5948.98 2096.4 5953.48 2079.7 5962.48 2064.5C5971.48 2049.1 5983.58 2036.9 5998.78 2027.9C6014.18 2018.9 6030.88 2014.4 6048.88 2014.4C6066.88 2014.4 6083.58 2018.9 6098.98 2027.9C6114.38 2036.9 6126.58 2049.1 6135.58 2064.5C6144.58 2079.9 6149.08 2096.6 6149.08 2114.6C6149.08 2132.6 6144.58 2149.3 6135.58 2164.7C6126.58 2179.9 6114.38 2192 6098.98 2201C6083.78 2210 6067.08 2214.5 6048.88 2214.5ZM6048.88 2194.1C6063.28 2194.1 6076.58 2190.6 6088.78 2183.6C6100.98 2176.4 6110.58 2166.7 6117.58 2154.5C6124.78 2142.3 6128.38 2129 6128.38 2114.6C6128.38 2100.2 6124.78 2086.9 6117.58 2074.7C6110.58 2062.5 6100.98 2052.9 6088.78 2045.9C6076.58 2038.7 6063.28 2035.1 6048.88 2035.1C6034.48 2035.1 6021.18 2038.7 6008.98 2045.9C5996.78 2052.9 5987.08 2062.5 5979.88 2074.7C5972.88 2086.9 5969.38 2100.2 5969.38 2114.6C5969.38 2129 5972.88 2142.3 5979.88 2154.5C5987.08 2166.7 5996.78 2176.4 6008.98 2183.6C6021.18 2190.6 6034.48 2194.1 6048.88 2194.1ZM6411.6 2013.5V2213H6387.3L6286.8 2051.9V2213H6266.1V2013.5H6287.7L6391.2 2179.1V2013.5H6411.6ZM6643.79 2071.4C6642.79 2063.8 6640.39 2057.2 6636.59 2051.6C6628.79 2039.6 6615.89 2033.6 6597.89 2033.6C6582.89 2033.6 6571.99 2037 6565.19 2043.8C6558.99 2050.2 6555.89 2058.9 6555.89 2069.9C6555.89 2082.1 6559.29 2090.5 6566.09 2095.1C6572.89 2099.7 6582.39 2102.5 6594.59 2103.5C6606.19 2104.5 6615.99 2106.1 6623.99 2108.3C6631.99 2110.3 6638.69 2113.1 6644.09 2116.7C6658.29 2125.5 6665.39 2139.3 6665.39 2158.1C6665.39 2165.5 6663.89 2172.5 6660.89 2179.1C6658.09 2185.7 6653.99 2191.6 6648.59 2196.8C6636.39 2208.8 6619.69 2214.8 6598.49 2214.8C6577.09 2214.8 6560.19 2208.9 6547.79 2197.1C6537.19 2187.3 6530.79 2174.1 6528.59 2157.5H6549.29C6551.09 2167.5 6555.29 2175.7 6561.89 2182.1C6570.49 2190.1 6582.79 2194.1 6598.79 2194.1C6612.39 2194.1 6623.39 2190.8 6631.79 2184.2C6640.39 2177.4 6644.69 2168.7 6644.69 2158.1C6644.69 2151.3 6643.29 2145.7 6640.49 2141.3C6637.89 2136.7 6632.79 2133 6625.19 2130.2C6617.59 2127.4 6606.79 2125.4 6592.79 2124.2C6554.39 2120.8 6535.19 2102.7 6535.19 2069.9C6535.19 2061.7 6536.49 2054.2 6539.09 2047.4C6541.89 2040.4 6545.79 2034.4 6550.79 2029.4C6561.79 2018.4 6577.39 2012.9 6597.59 2012.9H6597.89C6618.49 2013.1 6634.19 2018.8 6644.99 2030C6655.99 2041 6662.49 2054.9 6664.49 2071.7H6643.79V2071.4ZM6887.48 2033.6H6836.18V2213H6815.78V2033.6H6764.48V2013.5H6887.48V2033.6ZM7054.65 2141.3L7119.15 2213H7091.55L7027.05 2141.3H7025.25V2213H7004.55V2013.8H7055.55C7067.15 2013.8 7077.75 2016.7 7087.35 2022.5C7097.15 2028.1 7104.85 2035.8 7110.45 2045.6C7116.25 2055.4 7119.15 2066.1 7119.15 2077.7C7119.15 2089.3 7116.25 2100 7110.45 2109.8C7104.85 2119.4 7097.15 2127.1 7087.35 2132.9C7077.75 2138.5 7067.15 2141.3 7055.55 2141.3H7054.65ZM7025.25 2034.2V2120.9H7055.55C7063.35 2120.9 7070.55 2119 7077.15 2115.2C7083.75 2111.2 7088.95 2105.9 7092.75 2099.3C7096.75 2092.7 7098.75 2085.5 7098.75 2077.7C7098.75 2069.9 7096.75 2062.7 7092.75 2056.1C7088.95 2049.3 7083.75 2044 7077.15 2040.2C7070.55 2036.2 7063.35 2034.2 7055.55 2034.2H7025.25ZM7305.66 2215.1C7293.06 2215.1 7281.46 2212 7270.86 2205.8C7260.26 2199.4 7251.76 2190.9 7245.36 2180.3C7239.16 2169.7 7236.06 2158.1 7236.06 2145.5V2013.5H7256.16V2145.5C7256.16 2154.5 7258.36 2162.8 7262.76 2170.4C7267.16 2177.8 7273.16 2183.7 7280.76 2188.1C7288.36 2192.3 7296.66 2194.4 7305.66 2194.4C7314.66 2194.4 7322.96 2192.3 7330.56 2188.1C7338.36 2183.7 7344.46 2177.8 7348.86 2170.4C7353.26 2162.8 7355.46 2154.5 7355.46 2145.5V2013.5H7375.26V2145.5C7375.26 2158.1 7372.06 2169.7 7365.66 2180.3C7359.46 2190.9 7351.06 2199.4 7340.46 2205.8C7329.86 2212 7318.26 2215.1 7305.66 2215.1ZM7590.26 2214.8C7571.86 2214.8 7554.96 2210.3 7539.56 2201.3C7524.16 2192.3 7511.96 2180.1 7502.96 2164.7C7493.96 2149.3 7489.46 2132.4 7489.46 2114C7489.46 2095.6 7493.96 2078.7 7502.96 2063.3C7511.96 2047.7 7524.16 2035.4 7539.56 2026.4C7555.16 2017.2 7572.06 2012.6 7590.26 2012.6C7605.06 2012.6 7619.16 2015.7 7632.56 2021.9C7645.96 2027.9 7657.36 2036.6 7666.76 2048L7651.16 2061.2C7643.56 2052.4 7634.36 2045.6 7623.56 2040.8C7612.96 2035.8 7601.86 2033.3 7590.26 2033.3C7575.86 2033.3 7562.46 2037 7550.06 2044.4C7537.86 2051.6 7528.16 2061.4 7520.96 2073.8C7513.76 2086.2 7510.16 2099.6 7510.16 2114C7510.16 2128.4 7513.76 2141.8 7520.96 2154.2C7528.16 2166.4 7537.86 2176.1 7550.06 2183.3C7562.46 2190.5 7575.86 2194.1 7590.26 2194.1C7601.86 2194.1 7612.96 2191.7 7623.56 2186.9C7634.36 2181.9 7643.56 2175 7651.16 2166.2L7666.76 2179.4C7657.36 2190.6 7645.96 2199.3 7632.56 2205.5C7619.16 2211.7 7605.06 2214.8 7590.26 2214.8ZM7894.65 2033.6H7843.35V2213H7822.95V2033.6H7771.65V2013.5H7894.65V2033.6ZM8032.12 2013.5V2213H8011.72V2013.5H8032.12ZM8249.01 2214.5C8230.81 2214.5 8214.11 2210 8198.91 2201C8183.71 2192 8171.61 2179.9 8162.61 2164.7C8153.61 2149.5 8149.11 2132.8 8149.11 2114.6C8149.11 2096.4 8153.61 2079.7 8162.61 2064.5C8171.61 2049.1 8183.71 2036.9 8198.91 2027.9C8214.31 2018.9 8231.01 2014.4 8249.01 2014.4C8267.01 2014.4 8283.71 2018.9 8299.11 2027.9C8314.51 2036.9 8326.71 2049.1 8335.71 2064.5C8344.71 2079.9 8349.21 2096.6 8349.21 2114.6C8349.21 2132.6 8344.71 2149.3 8335.71 2164.7C8326.71 2179.9 8314.51 2192 8299.11 2201C8283.91 2210 8267.21 2214.5 8249.01 2214.5ZM8249.01 2194.1C8263.41 2194.1 8276.71 2190.6 8288.91 2183.6C8301.11 2176.4 8310.71 2166.7 8317.71 2154.5C8324.91 2142.3 8328.51 2129 8328.51 2114.6C8328.51 2100.2 8324.91 2086.9 8317.71 2074.7C8310.71 2062.5 8301.11 2052.9 8288.91 2045.9C8276.71 2038.7 8263.41 2035.1 8249.01 2035.1C8234.61 2035.1 8221.31 2038.7 8209.11 2045.9C8196.91 2052.9 8187.21 2062.5 8180.01 2074.7C8173.01 2086.9 8169.51 2100.2 8169.51 2114.6C8169.51 2129 8173.01 2142.3 8180.01 2154.5C8187.21 2166.7 8196.91 2176.4 8209.11 2183.6C8221.31 2190.6 8234.61 2194.1 8249.01 2194.1ZM8611.73 2013.5V2213H8587.43L8486.93 2051.9V2213H8466.23V2013.5H8487.83L8591.33 2179.1V2013.5H8611.73Z" fill="black"/>
</svg>
